<svg width="32" height="32" viewBox="0 0 32 32" fill="none" xmlns="http://www.w3.org/2000/svg">
<path d="M8.6 28.798C7.97073 29.27 7.08494 28.8629 7.00572 28.1082L7 27.998L7 8.99805C7 7.40037 8.24892 6.09439 9.82373 6.00314L10 5.99805L17 5.99805C17.5523 5.99805 18 6.44576 18 6.99805C18 7.51088 17.614 7.93355 17.1166 7.99132L17 7.99805H10C9.48716 7.99805 9.06449 8.38409 9.00673 8.88143L9 8.99805V25.999L15.4 21.198C15.72 20.958 16.148 20.934 16.4896 21.126L16.6 21.198L23 25.999V13.998C23 13.4852 23.386 13.0625 23.8834 13.0048L24 12.998C24.5128 12.998 24.9355 13.3841 24.9933 13.8814L25 13.998V27.998C25 28.7846 24.1428 29.249 23.4915 28.8595L23.4 28.798L16 23.249L8.6 28.798Z" fill="url(#paint0_linear_402_21955)"/>
<path d="M24 3C24.5128 3 24.9355 3.38604 24.9933 3.88338L25 4V10C25 10.5523 24.5523 11 24 11C23.4872 11 23.0645 10.614 23.0067 10.1166L23 10V4C23 3.44772 23.4477 3 24 3Z" fill="url(#paint1_linear_402_21955)"/>
<path d="M27 6C27.5523 6 28 6.44772 28 7C28 7.51284 27.614 7.93551 27.1166 7.99327L27 8H21C20.4477 8 20 7.55228 20 7C20 6.48716 20.386 6.06449 20.8834 6.00673L21 6H27Z" fill="url(#paint2_linear_402_21955)"/>
<defs>
<linearGradient id="paint0_linear_402_21955" x1="-2" y1="17.499" x2="20.3272" y2="34.9711" gradientUnits="userSpaceOnUse">
<stop stop-color="#A300FF"/>
<stop offset="0.511423" stop-color="#2C00FF"/>
<stop offset="1" stop-color="#00AFFF"/>
</linearGradient>
<linearGradient id="paint1_linear_402_21955" x1="22" y1="7" x2="25.7647" y2="7.94118" gradientUnits="userSpaceOnUse">
<stop stop-color="#A300FF"/>
<stop offset="0.511423" stop-color="#2C00FF"/>
<stop offset="1" stop-color="#00AFFF"/>
</linearGradient>
<linearGradient id="paint2_linear_402_21955" x1="16" y1="7" x2="16.9412" y2="10.7647" gradientUnits="userSpaceOnUse">
<stop stop-color="#A300FF"/>
<stop offset="0.511423" stop-color="#2C00FF"/>
<stop offset="1" stop-color="#00AFFF"/>
</linearGradient>
</defs>
</svg>
